<?xml version="1.0" encoding="utf-8"?>
<!-- Generator: Adobe Illustrator 21.0.0, SVG Export Plug-In . SVG Version: 6.00 Build 0)  -->
<svg version="1.1" id="Layer_1" xmlns="http://www.w3.org/2000/svg" xmlns:xlink="http://www.w3.org/1999/xlink" x="0px" y="0px"
	 viewBox="0 0 256 256" style="enable-background:new 0 0 256 256;" xml:space="preserve">
<style type="text/css">
	.st0{fill:#303030;}
</style>
<path class="st0" d="M50.9,37c-10.7,0-19.3,8.6-19.3,19.3v96.3c0,10.6,8.6,19.3,19.3,19.3H128V220l28.9-28.9l28.9,28.9v-48.2h19.3
	c10.6,0,19.3-8.6,19.3-19.3V85.2V65.9v-9.6c0-10.6-8.6-19.3-19.3-19.3h-38.5l0,0H50.9 M128,56.3l28.9,19.3l28.9-19.3V90l28.9,14.4
	l-28.9,14.4v33.7l-28.9-19.3L128,152.6v-33.7l-28.9-14.4L128,90V56.3 M50.9,56.3h48.2v19.3H50.9V56.3 M50.9,94.8h28.9v19.3H50.9
	V94.8 M50.9,133.3h48.2v19.3H50.9V133.3z"/>
</svg>
