<?xml version="1.0" encoding="utf-8"?>
<!-- Generator: Adobe Illustrator 19.1.0, SVG Export Plug-In . SVG Version: 6.00 Build 0)  -->
<svg version="1.1" id="Layer_1" xmlns="http://www.w3.org/2000/svg" xmlns:xlink="http://www.w3.org/1999/xlink" x="0px" y="0px"
	 viewBox="-292 170.3 256 256" style="enable-background:new -292 170.3 256 256;" xml:space="preserve">
<style type="text/css">
	.st0{fill:none;stroke:#51A4B9;stroke-width:6;stroke-miterlimit:10;}
</style>
<path class="st0" d="M-249.2,197.1c-11.8,0-21.3,9.5-21.3,21.3v106.5c0,11.8,9.5,21.3,21.3,21.3h85.2v53.3l31.9-31.9l31.9,31.9
	v-53.3h21.3c11.8,0,21.3-9.5,21.3-21.3v-74.5v-21.3v-10.7c0-11.8-9.5-21.3-21.3-21.3h-42.6l0,0H-249.2 M-151.6,237.5l20.5,13.7
	l20.5-13.7v23.9l20.5,10.3l-20.5,10.3v23.9l-20.5-13.7l-20.5,13.7V282l-20.5-10.3l20.5-10.3V237.5z M-195.9,253.7h-53.3
	 M-217.2,272.3h-32 M-195.9,290.9h-53.3"/>
</svg>
