<?xml version="1.0" encoding="utf-8"?>
<!-- Generator: Adobe Illustrator 21.0.0, SVG Export Plug-In . SVG Version: 6.00 Build 0)  -->
<svg version="1.1" id="Layer_1" xmlns="http://www.w3.org/2000/svg" xmlns:xlink="http://www.w3.org/1999/xlink" x="0px" y="0px"
	 viewBox="0 0 256 256" style="enable-background:new 0 0 256 256;" xml:space="preserve">
<style type="text/css">
	.st0{fill:none;stroke:#F3F3F3;stroke-width:10;stroke-miterlimit:10;}
</style>
<path class="st0" d="M42.8,26.8c-11.8,0-21.3,9.5-21.3,21.3v106.5c0,11.8,9.5,21.3,21.3,21.3H128v53.3l31.9-31.9l31.9,31.9v-53.3
	h21.3c11.8,0,21.3-9.5,21.3-21.3V80.1V58.8V48.1c0-11.8-9.5-21.3-21.3-21.3h-42.6l0,0H42.8 M140.4,67.2l20.5,13.7l20.5-13.7v23.9
	l20.5,10.3l-20.5,10.3v23.9l-20.5-13.7l-20.5,13.7v-23.9l-20.5-10.3l20.5-10.3V67.2z M96.1,83.4H42.8 M74.8,102h-32 M96.1,120.6
	H42.8"/>
</svg>
