<?xml version="1.0" encoding="utf-8"?>
<!-- Generator: Adobe Illustrator 21.0.0, SVG Export Plug-In . SVG Version: 6.00 Build 0)  -->
<svg version="1.1"
	 id="svg2211" inkscape:version="0.47 r22583" sodipodi:docname="Barack_Obama_signature[1].svg" xmlns:cc="http://creativecommons.org/ns#" xmlns:dc="http://purl.org/dc/elements/1.1/" xmlns:inkscape="http://www.inkscape.org/namespaces/inkscape" xmlns:rdf="http://www.w3.org/1999/02/22-rdf-syntax-ns#" xmlns:sodipodi="http://sodipodi.sourceforge.net/DTD/sodipodi-0.dtd" xmlns:svg="http://www.w3.org/2000/svg"
	 xmlns="http://www.w3.org/2000/svg" xmlns:xlink="http://www.w3.org/1999/xlink" x="0px" y="0px" viewBox="0 0 182 44"
	 style="enable-background:new 0 0 182 44;" xml:space="preserve">
<style type="text/css">
	.st0{fill:none;stroke:#FFFFFF;stroke-width:1.4;stroke-linecap:round;stroke-linejoin:round;}
	.st1{fill:none;stroke:#FFFFFF;stroke-width:1.4;}
	.st2{fill:none;stroke:#FFFFFF;stroke-width:1.4;stroke-linecap:round;}
</style>
<defs>
	
	
		<inkscape:perspective  id="perspective15" inkscape:persp3d-origin="91 : 14.666667 : 1" inkscape:vp_x="0 : 22 : 1" inkscape:vp_y="0 : 1000 : 0" inkscape:vp_z="182 : 22 : 1" sodipodi:type="inkscape:persp3d">
		</inkscape:perspective>
</defs>
<sodipodi:namedview  bordercolor="#666666" borderopacity="1" gridtolerance="10" guidetolerance="10" id="namedview9" inkscape:current-layer="svg2211" inkscape:cx="57.873235" inkscape:cy="21.157407" inkscape:pageopacity="0" inkscape:pageshadow="2" inkscape:window-height="605" inkscape:window-maximized="0" inkscape:window-width="886" inkscape:window-x="26" inkscape:window-y="119" inkscape:zoom="4.1960183" objecttolerance="10" pagecolor="#ffffff" showgrid="false">
	</sodipodi:namedview>
<path id="path2220" class="st0" d="M24.8,42.5C11.3,41.1,1,36,1.2,26.9c0.5-15.3,15.6-23.3,27-23.6c5.4-0.2,9.8,2.4,10.2,5.8
	c0.9,7.7-19.2,15.6-19.2,15.6s17.9-6.6,24.7,2.2C46.5,30.5,32,37.5,32,37.5s-8.8,3.4-7.6-0.2c1.8-5.5,16.8-10.1,18.4-10.3
	c3.2-0.4,7.1-0.4,8,0.1c1.3,0.8-1.7,4.1-0.9,4.9s3.8-2.5,3.9-2s-0.6,2.6,0.6,3c1.2,0.4,2.3-1.1,4.3-1.5s1.8-0.4,3.6-0.1
	c1.8,0.3,2.1,0.6,3.5,1.4c1.4,0.8,0.9,2.2,2,1.6c1.1-0.6,1.4-4.2,2.4-4.1c1,0.1,0,5.4,1.6,4.5c1.6-0.9,4.7-8,4.7-8s-0.8,4,0,3.9
	c3.1-0.4,8.1-2.6,14.5-3.4c6.4-0.8,8.7-0.4,11,0.2c1.9,0.5,2.7,2.3,2.7,2.3"/>
<path id="path2225" class="st1" d="M113.7,15.8c0,0-1.1-2.8-3.6-2.1c-5.8,1.6-16.2,7.7-16.4,15.6c-0.5,16.3,21.1,11.1,22.7,11
	c13.6-1.2,17.4-10,17.4-14.5c-0.1-14.3-19.1-10.3-21.1-10.1c-7.9,0.9-10.5,1.6-10.5,1.6"/>
<path id="path2228" class="st2" d="M119.7,1c-2.5,13.9-5.1,27.8-2.5,41.4"/>
<path id="path2230" class="st1" d="M133.6,27.8c-6.6-0.4-12.6,0.4-17.4,3.4"/>
<path id="path2234" class="st2" d="M131.5,32.8c0,0,3.9-0.1,8.3-0.9c2.4-0.4,5-1.7,7.9-1.9c2.9-0.1,1.7,1.4,3.6,1.4
	c4.6-0.1,8-0.3,14.9-0.7c6.9-0.4,9.8-2.8,12.9-0.9c1.7,1,1.4,3.1,1.4,3.1"/>
<path id="path2237" class="st1" d="M153.5,31c0,0,2.3-2.7-0.7-3.4c-3.4-0.7-3.7,2.4-3.7,2.4"/>
</svg>
