<?xml version="1.0" encoding="utf-8"?>
<!-- Generator: Adobe Illustrator 21.0.0, SVG Export Plug-In . SVG Version: 6.00 Build 0)  -->
<svg version="1.1" id="Layer_1" xmlns="http://www.w3.org/2000/svg" xmlns:xlink="http://www.w3.org/1999/xlink" x="0px" y="0px"
	 viewBox="0 0 256 256" style="enable-background:new 0 0 256 256;" xml:space="preserve">
<style type="text/css">
	.st0{fill:#303030;}
</style>
<path class="st0" d="M128,165.8c-20.9,0-37.8-16.9-37.8-37.8s16.9-37.8,37.8-37.8c20.9,0,37.8,16.9,37.8,37.8S148.9,165.8,128,165.8
	 M208.2,138.5c0.4-3.5,0.8-6.9,0.8-10.5c0-3.6-0.3-7.1-0.8-10.8L231,99.6c2.1-1.6,2.6-4.5,1.3-6.9l-21.6-37.3
	c-1.3-2.4-4.2-3.3-6.6-2.4l-26.9,10.8c-5.6-4.2-11.4-7.9-18.2-10.6l-4-28.6c-0.4-2.6-2.7-4.5-5.4-4.5h-43.2c-2.7,0-5,1.9-5.4,4.5
	l-4,28.6c-6.8,2.7-12.6,6.4-18.2,10.6L51.9,53c-2.4-1-5.3,0-6.6,2.4L23.7,92.7C22.3,95.1,23,98,25,99.6l22.8,17.6
	c-0.4,3.7-0.8,7.2-0.8,10.8c0,3.6,0.3,7,0.8,10.5L25,156.4c-2.1,1.6-2.7,4.5-1.3,6.9l21.6,37.3c1.3,2.4,4.2,3.2,6.6,2.4l26.9-10.9
	c5.6,4.3,11.4,8,18.2,10.7l4,28.6c0.4,2.6,2.7,4.5,5.4,4.5h43.2c2.7,0,5-1.9,5.4-4.5l4-28.6c6.8-2.8,12.6-6.4,18.2-10.7l26.9,10.9
	c2.4,0.9,5.3,0,6.6-2.4l21.6-37.3c1.3-2.4,0.8-5.3-1.3-6.9L208.2,138.5z"/>
</svg>
