<?xml version="1.0" encoding="utf-8"?>
<!-- Generator: Adobe Illustrator 19.1.0, SVG Export Plug-In . SVG Version: 6.00 Build 0)  -->
<svg version="1.1" id="Layer_1" xmlns="http://www.w3.org/2000/svg" xmlns:xlink="http://www.w3.org/1999/xlink" x="0px" y="0px"
	 viewBox="-292 170.3 256 256" style="enable-background:new -292 170.3 256 256;" xml:space="preserve">
<style type="text/css">
	.st0{fill:none;stroke:#51A4B9;stroke-width:11;stroke-miterlimit:10;}
</style>
<path class="st0" d="M-164.1,336.6c-21.2,0-38.3-17.2-38.3-38.3s17.2-38.3,38.3-38.3s38.3,17.2,38.3,38.3S-142.9,336.6-164.1,336.6
	 M-82.7,308.9c0.4-3.5,0.8-7,0.8-10.6s-0.3-7.2-0.8-10.9l23.1-17.8c2.1-1.6,2.6-4.6,1.3-7l-21.9-37.9c-1.3-2.4-4.3-3.4-6.7-2.4
	l-27.2,10.9c-5.7-4.3-11.6-8-18.5-10.7l-4.1-29c-0.4-2.6-2.7-4.6-5.5-4.6H-186c-2.7,0-5,2-5.5,4.6l-4.1,29
	c-6.9,2.7-12.8,6.5-18.5,10.7l-27.2-11c-2.4-1-5.4,0-6.7,2.4l-21.8,37.9c-1.4,2.4-0.8,5.4,1.3,7l23.1,17.8
	c-0.4,3.7-0.8,7.3-0.8,10.9s0.3,7.1,0.8,10.6l-23.1,18.2c-2.1,1.6-2.7,4.6-1.3,7l21.9,37.9c1.3,2.4,4.3,3.3,6.7,2.4l27.2-11
	c5.7,4.4,11.6,8.1,18.5,10.8l4.1,29c0.4,2.6,2.7,4.6,5.5,4.6h43.8c2.7,0,5-2,5.5-4.6l4.1-29c6.9-2.8,12.8-6.5,18.5-10.8l27.3,11.1
	c2.4,0.9,5.4,0,6.7-2.4l21.9-37.9c1.3-2.4,0.8-5.4-1.3-7L-82.7,308.9z"/>
</svg>
