<?xml version="1.0" encoding="utf-8"?>
<!-- Generator: Adobe Illustrator 21.0.0, SVG Export Plug-In . SVG Version: 6.00 Build 0)  -->
<svg version="1.1" id="Layer_1" xmlns="http://www.w3.org/2000/svg" xmlns:xlink="http://www.w3.org/1999/xlink" x="0px" y="0px"
	 viewBox="0 0 256 256" style="enable-background:new 0 0 256 256;" xml:space="preserve">
<style type="text/css">
	.st0{fill:none;stroke:#F3F3F3;stroke-width:9.3421;stroke-miterlimit:10;}
</style>
<path class="st0" d="M223.3,195.3v11.2c0,12.4-10,22.4-22.4,22.4H43.9c-12.4,0-22.4-10.1-22.4-22.4V49.5c0-12.4,10-22.4,22.4-22.4
	h156.9c12.4,0,22.4,10,22.4,22.4v11.2H122.4C110,60.7,100,70.8,100,83.2v89.7c0,12.4,10,22.4,22.4,22.4H223.3z M122.4,172.8h112.1
	V83.2H122.4 M167.2,144.8c-9.3,0-16.8-7.5-16.8-16.8s7.5-16.8,16.8-16.8c9.3,0,16.8,7.5,16.8,16.8S176.5,144.8,167.2,144.8z"/>
</svg>
