<?xml version="1.0" encoding="utf-8"?>
<!-- Generator: Adobe Illustrator 19.1.0, SVG Export Plug-In . SVG Version: 6.00 Build 0)  -->
<svg version="1.1" id="Layer_1" xmlns="http://www.w3.org/2000/svg" xmlns:xlink="http://www.w3.org/1999/xlink" x="0px" y="0px"
	 viewBox="-292 170.3 256 256" style="enable-background:new -292 170.3 256 256;" xml:space="preserve">
<style type="text/css">
	.st0{fill:none;stroke:#51A4B9;stroke-width:6;stroke-miterlimit:10;}
</style>
<path class="st0" d="M-68.7,365.6v11.2c0,12.4-10,22.4-22.4,22.4h-157c-12.4,0-22.4-10.1-22.4-22.4v-157c0-12.4,10-22.4,22.4-22.4
	h156.9c12.4,0,22.4,10,22.4,22.4V231h-100.8c-12.4,0-22.4,10.1-22.4,22.5v89.7c0,12.4,10,22.4,22.4,22.4L-68.7,365.6L-68.7,365.6z
	 M-169.6,343.1h112.1v-89.6h-112.1 M-124.8,315.1c-9.3,0-16.8-7.5-16.8-16.8c0-9.3,7.5-16.8,16.8-16.8s16.8,7.5,16.8,16.8
	C-108,307.6-115.5,315.1-124.8,315.1z"/>
</svg>
